<svg width="25" height="24" viewBox="0 0 25 24" fill="none" xmlns="http://www.w3.org/2000/svg">
<path fill-rule="evenodd" clip-rule="evenodd" d="M18.054 6.12348C13.9472 3.89353 8.81021 5.41504 6.58026 9.52186C4.35032 13.6287 5.87182 18.7656 9.97864 20.9956C14.0855 23.2255 19.2224 21.704 21.4524 17.5972C23.6823 13.4904 22.1608 8.35342 18.054 6.12348ZM5.22825 8.78773C7.86364 3.93422 13.9346 2.13608 18.7881 4.77147C23.6416 7.40685 25.4398 13.4778 22.8044 18.3313C20.169 23.1848 14.098 24.983 9.24452 22.3476C4.39101 19.7122 2.59286 13.6412 5.22825 8.78773Z" fill="#595959"/>
<path fill-rule="evenodd" clip-rule="evenodd" d="M16.8305 8.37684C17.2038 8.57957 17.3421 9.04656 17.1394 9.41991L14.6924 13.9266C14.595 14.1059 14.4304 14.2392 14.2348 14.2971L10.0625 15.5329C9.65518 15.6535 9.22716 15.4211 9.10651 15.0138C8.98586 14.6064 9.21827 14.1784 9.62562 14.0578L13.4924 12.9125L15.7874 8.68579C15.9901 8.31244 16.4571 8.17412 16.8305 8.37684Z" fill="#595959"/>
<path fill-rule="evenodd" clip-rule="evenodd" d="M12 3.53846C7.32682 3.53846 3.53846 7.32682 3.53846 12C3.53846 16.6732 7.32682 20.4615 12 20.4615C16.6732 20.4615 20.4615 16.6732 20.4615 12C20.4615 7.32682 16.6732 3.53846 12 3.53846ZM2 12C2 6.47715 6.47715 2 12 2C17.5228 2 22 6.47715 22 12C22 17.5228 17.5228 22 12 22C6.47715 22 2 17.5228 2 12Z" fill="white"/>
<path fill-rule="evenodd" clip-rule="evenodd" d="M12 6.10256C12.4249 6.10256 12.7693 6.44696 12.7693 6.8718V12C12.7693 12.204 12.6882 12.3997 12.544 12.5439L9.46703 15.6209C9.16662 15.9213 8.67957 15.9213 8.37917 15.6209C8.07877 15.3204 8.07877 14.8334 8.37917 14.533L11.2308 11.6814V6.8718C11.2308 6.44696 11.5752 6.10256 12 6.10256Z" fill="white"/>
</svg>
