<svg width="13" height="13" viewBox="0 0 13 13" fill="none" xmlns="http://www.w3.org/2000/svg">
<path fill-rule="evenodd" clip-rule="evenodd" d="M0.993993 0.993993C1.20815 0.779834 1.55537 0.779834 1.76953 0.993993L6.50004 5.7245L11.2306 0.993993C11.4447 0.779834 11.7919 0.779834 12.0061 0.993993C12.2202 1.20815 12.2202 1.55537 12.0061 1.76953L7.27558 6.50004L12.0061 11.2306C12.2202 11.4447 12.2202 11.7919 12.0061 12.0061C11.7919 12.2202 11.4447 12.2202 11.2306 12.0061L6.50004 7.27558L1.76953 12.0061C1.55537 12.2202 1.20815 12.2202 0.993993 12.0061C0.779834 11.7919 0.779834 11.4447 0.993993 11.2306L5.7245 6.50004L0.993993 1.76953C0.779834 1.55537 0.779834 1.20815 0.993993 0.993993Z" fill="black"/>
</svg>
