<svg width="25" height="25" viewBox="0 0 25 25" fill="none" xmlns="http://www.w3.org/2000/svg">
<path d="M10.3232 16.1225C10.1802 16.656 9.63188 16.9726 9.09842 16.8297C8.56495 16.6867 8.24837 16.1384 8.39131 15.6049C8.53425 15.0714 9.08259 14.7549 9.61606 14.8978C10.1495 15.0407 10.4661 15.5891 10.3232 16.1225Z" fill="#595959"/>
<path d="M11.3584 12.2588C11.2155 12.7923 10.6672 13.1089 10.1337 12.9659C9.60023 12.823 9.28365 12.2747 9.42659 11.7412C9.56953 11.2077 10.1179 10.8912 10.6513 11.0341C11.1848 11.177 11.5014 11.7254 11.3584 12.2588Z" fill="#595959"/>
<path d="M14.1869 17.1578C14.0439 17.6913 13.4956 18.0079 12.9621 17.8649C12.4287 17.722 12.1121 17.1737 12.255 16.6402C12.398 16.1067 12.9463 15.7901 13.4798 15.9331C14.0132 16.076 14.3298 16.6244 14.1869 17.1578Z" fill="#595959"/>
<path d="M15.2221 13.2941C15.0792 13.8276 14.5309 14.1442 13.9974 14.0012C13.4639 13.8583 13.1473 13.3099 13.2903 12.7765C13.4332 12.243 13.9816 11.9264 14.515 12.0694C15.0485 12.2123 15.3651 12.7607 15.2221 13.2941Z" fill="#595959"/>
<path d="M19.0858 14.3294C18.9429 14.8629 18.3946 15.1794 17.8611 15.0365C17.3276 14.8936 17.0111 14.3452 17.154 13.8118C17.2969 13.2783 17.8453 12.9617 18.3787 13.1047C18.9122 13.2476 19.2288 13.7959 19.0858 14.3294Z" fill="#595959"/>
<path fill-rule="evenodd" clip-rule="evenodd" d="M15.8738 6.99826C13.8293 6.45043 10.9885 5.87912 9.21085 5.53953C8.62583 5.42777 8.0536 5.75499 7.85365 6.31482C7.27657 7.93064 6.40594 10.4574 5.8991 12.3489C5.39226 14.2405 4.88288 16.864 4.57474 18.5519C4.46798 19.1367 4.79994 19.7062 5.36246 19.9019C7.07172 20.4966 9.81759 21.4223 11.8621 21.9701C13.9067 22.518 16.7475 23.0893 18.5251 23.4288C19.1101 23.5406 19.6824 23.2134 19.8823 22.6536C20.4594 21.0377 21.33 18.511 21.8369 16.6194C22.3437 14.7279 22.8531 12.1044 23.1612 10.4165C23.268 9.83168 22.936 9.26218 22.3735 9.06646C20.6643 8.47174 17.9184 7.5461 15.8738 6.99826ZM9.49231 4.06617C11.2707 4.40592 14.1594 4.98596 16.2621 5.54937C18.3647 6.11279 21.1564 7.05477 22.8664 7.64976C24.1263 8.0881 24.8766 9.37253 24.6369 10.6859C24.3285 12.3751 23.8099 15.0517 23.2858 17.0077C22.7617 18.9637 21.8725 21.541 21.2949 23.1581C20.8459 24.4153 19.5539 25.1525 18.2437 24.9022C16.4652 24.5625 13.5766 23.9824 11.4739 23.419C9.37123 22.8556 6.57957 21.9136 4.86954 21.3186C3.60972 20.8803 2.85937 19.5958 3.09912 18.2825C3.40751 16.5933 3.9261 13.9167 4.45021 11.9607C4.97432 10.0047 5.8635 7.42741 6.44104 5.81031C6.89007 4.55305 8.18211 3.81588 9.49231 4.06617Z" fill="#595959"/>
<path fill-rule="evenodd" clip-rule="evenodd" d="M13.6231 3.80699C14.0232 3.9142 14.2606 4.32545 14.1534 4.72555L13.5064 7.14037C13.3992 7.54046 12.9879 7.7779 12.5878 7.6707C12.1877 7.56349 11.9503 7.15224 12.0575 6.75214L12.7045 4.33732C12.8118 3.93722 13.223 3.69979 13.6231 3.80699Z" fill="#595959"/>
<path fill-rule="evenodd" clip-rule="evenodd" d="M19.4187 5.35991C19.8188 5.46711 20.0562 5.87837 19.949 6.27846L19.3019 8.69328C19.1947 9.09338 18.7835 9.33082 18.3834 9.22361C17.9833 9.1164 17.7458 8.70515 17.8531 8.30505L18.5001 5.89024C18.6073 5.49014 19.0186 5.2527 19.4187 5.35991Z" fill="#595959"/>
<path d="M9 15C9 15.5523 8.55228 16 8 16C7.44772 16 7 15.5523 7 15C7 14.4477 7.44772 14 8 14C8.55228 14 9 14.4477 9 15Z" fill="white"/>
<path d="M9 11C9 11.5523 8.55228 12 8 12C7.44772 12 7 11.5523 7 11C7 10.4477 7.44772 10 8 10C8.55228 10 9 10.4477 9 11Z" fill="white"/>
<path d="M13 15C13 15.5523 12.5523 16 12 16C11.4477 16 11 15.5523 11 15C11 14.4477 11.4477 14 12 14C12.5523 14 13 14.4477 13 15Z" fill="white"/>
<path d="M13 11C13 11.5523 12.5523 12 12 12C11.4477 12 11 11.5523 11 11C11 10.4477 11.4477 10 12 10C12.5523 10 13 10.4477 13 11Z" fill="white"/>
<path d="M17 11C17 11.5523 16.5523 12 16 12C15.4477 12 15 11.5523 15 11C15 10.4477 15.4477 10 16 10C16.5523 10 17 10.4477 17 11Z" fill="white"/>
<path fill-rule="evenodd" clip-rule="evenodd" d="M12 4.75C9.88333 4.75 6.99144 4.93342 5.1865 5.06548C4.59249 5.10894 4.12445 5.57311 4.07621 6.16562C3.93699 7.87574 3.75 10.5417 3.75 12.5C3.75 14.4583 3.93699 17.1243 4.07621 18.8344C4.12445 19.4269 4.59249 19.8911 5.1865 19.9345C6.99145 20.0666 9.88333 20.25 12 20.25C14.1167 20.25 17.0086 20.0666 18.8135 19.9345C19.4075 19.8911 19.8756 19.4269 19.9238 18.8344C20.063 17.1243 20.25 14.4583 20.25 12.5C20.25 10.5417 20.063 7.87574 19.9238 6.16562C19.8756 5.57312 19.4075 5.10894 18.8135 5.06548C17.0086 4.93342 14.1167 4.75 12 4.75ZM5.07704 3.56948C6.8828 3.43736 9.82315 3.25 12 3.25C14.1769 3.25 17.1172 3.43736 18.923 3.56948C20.2533 3.66682 21.3105 4.71328 21.4188 6.04391C21.5582 7.75539 21.75 10.475 21.75 12.5C21.75 14.525 21.5582 17.2446 21.4188 18.9561C21.3105 20.2867 20.2533 21.3332 18.923 21.4305C17.1172 21.5626 14.1769 21.75 12 21.75C9.82315 21.75 6.8828 21.5626 5.07704 21.4305C3.7467 21.3332 2.68948 20.2867 2.58116 18.9561C2.44183 17.2446 2.25 14.525 2.25 12.5C2.25 10.475 2.44183 7.75539 2.58116 6.04391C2.68948 4.71328 3.7467 3.66682 5.07704 3.56948Z" fill="white"/>
<path fill-rule="evenodd" clip-rule="evenodd" d="M9 2.25C9.41421 2.25 9.75 2.58579 9.75 3V5.5C9.75 5.91421 9.41421 6.25 9 6.25C8.58579 6.25 8.25 5.91421 8.25 5.5V3C8.25 2.58579 8.58579 2.25 9 2.25Z" fill="white"/>
<path fill-rule="evenodd" clip-rule="evenodd" d="M15 2.25C15.4142 2.25 15.75 2.58579 15.75 3L15.75 5.5C15.75 5.91421 15.4142 6.25 15 6.25C14.5858 6.25 14.25 5.91421 14.25 5.5L14.25 3C14.25 2.58579 14.5858 2.25 15 2.25Z" fill="white"/>
</svg>
