<svg width="24" height="25" viewBox="0 0 24 25" fill="none" xmlns="http://www.w3.org/2000/svg">
<path fill-rule="evenodd" clip-rule="evenodd" d="M16.1861 5.82924C14.7132 5.43458 12.692 5.06627 11.2728 4.82976C10.6838 4.73162 10.114 5.06632 9.91512 5.63091C9.29937 7.37871 8.33036 10.22 7.76427 12.3327C7.19819 14.4453 6.61673 17.3905 6.27609 19.212C6.16605 19.8004 6.49217 20.3751 7.05126 20.5846C8.39862 21.0894 10.3331 21.781 11.806 22.1757C13.2789 22.5703 15.3001 22.9386 16.7194 23.1752C17.3083 23.2733 17.8781 22.9386 18.077 22.374C18.6927 20.6262 19.6617 17.7849 20.2278 15.6723C20.7939 13.5596 21.3754 10.6145 21.716 8.79295C21.8261 8.20455 21.4999 7.62979 20.9409 7.42032C19.5935 6.91552 17.659 6.2239 16.1861 5.82924ZM11.5238 3.31182C12.9468 3.54896 15.0325 3.92741 16.5842 4.3432C18.136 4.75898 20.1315 5.4741 21.4824 5.98024C22.7506 6.45536 23.4841 7.76153 23.2377 9.07906C22.8969 10.9012 22.3063 13.8979 21.7235 16.073C21.1406 18.2481 20.1538 21.1387 19.5378 22.8871C19.0925 24.1513 17.8042 24.9157 16.4683 24.6931C15.0453 24.456 12.9596 24.0775 11.4079 23.6617C9.85614 23.2459 7.8606 22.5308 6.50968 22.0247C5.24151 21.5496 4.50803 20.2434 4.75442 18.9259C5.09518 17.1037 5.68582 14.107 6.26865 11.9319C6.85147 9.75677 7.8383 6.86626 8.45427 5.11785C8.89965 3.85364 10.1879 3.08921 11.5238 3.31182Z" fill="#595959"/>
<path fill-rule="evenodd" clip-rule="evenodd" d="M9.72607 14.982C9.61612 15.3923 9.86179 15.8147 10.2748 15.9254L16.2573 17.5284C16.6703 17.639 17.0943 17.3961 17.2042 16.9857C17.3142 16.5754 17.0685 16.153 16.6555 16.0423L10.673 14.4393C10.26 14.3287 9.83603 14.5716 9.72607 14.982Z" fill="#595959"/>
<path fill-rule="evenodd" clip-rule="evenodd" d="M10.7879 11.0192C10.6779 11.4295 10.9236 11.8519 11.3366 11.9626L14.3279 12.7641C14.7409 12.8748 15.1648 12.6318 15.2748 12.2214C15.3847 11.8111 15.1391 11.3887 14.7261 11.2781L11.7348 10.4765C11.3218 10.3659 10.8979 10.6088 10.7879 11.0192Z" fill="#595959"/>
<path fill-rule="evenodd" clip-rule="evenodd" d="M12 3.53846C10.4751 3.53846 8.42753 3.70582 6.99542 3.8447C6.40117 3.90233 5.93741 4.3731 5.89141 4.96993C5.749 6.81754 5.54839 9.81282 5.54839 12C5.54839 14.1872 5.749 17.1825 5.89141 19.0301C5.93741 19.6269 6.40117 20.0977 6.99542 20.1553C8.42753 20.2942 10.4751 20.4615 12 20.4615C13.5249 20.4615 15.5725 20.2942 17.0046 20.1553C17.5988 20.0977 18.0626 19.6269 18.1086 19.0301C18.251 17.1825 18.4516 14.1872 18.4516 12C18.4516 9.81282 18.251 6.81754 18.1086 4.96993C18.0626 4.3731 17.5988 3.90233 17.0046 3.8447C15.5725 3.70582 13.5249 3.53846 12 3.53846ZM6.84502 2.31351C8.28091 2.17427 10.3935 2 12 2C13.6065 2 15.7191 2.17427 17.155 2.31351C18.5029 2.44423 19.5495 3.51605 19.6525 4.85245C19.7949 6.70071 20 9.74813 20 12C20 14.2519 19.7949 17.2993 19.6525 19.1476C19.5495 20.484 18.5029 21.5558 17.155 21.6865C15.7191 21.8257 13.6065 22 12 22C10.3935 22 8.28091 21.8257 6.84502 21.6865C5.49709 21.5558 4.45055 20.484 4.34754 19.1476C4.20508 17.2993 4 14.2519 4 12C4 9.74813 4.20508 6.70071 4.34754 4.85245C4.45055 3.51605 5.49709 2.44423 6.84502 2.31351Z" fill="white"/>
<path fill-rule="evenodd" clip-rule="evenodd" d="M8.12903 14.0513C8.12903 14.4761 8.47565 14.8205 8.90323 14.8205H15.0968C15.5243 14.8205 15.871 14.4761 15.871 14.0513C15.871 13.6264 15.5243 13.2821 15.0968 13.2821H8.90323C8.47565 13.2821 8.12903 13.6264 8.12903 14.0513Z" fill="white"/>
<path fill-rule="evenodd" clip-rule="evenodd" d="M8.12903 9.94872C8.12903 10.3736 8.47565 10.7179 8.90323 10.7179H12C12.4276 10.7179 12.7742 10.3736 12.7742 9.94872C12.7742 9.52388 12.4276 9.17949 12 9.17949H8.90323C8.47565 9.17949 8.12903 9.52388 8.12903 9.94872Z" fill="white"/>
</svg>
