<svg width="24" height="26" viewBox="0 0 24 26" fill="none" xmlns="http://www.w3.org/2000/svg">
<path fill-rule="evenodd" clip-rule="evenodd" d="M14.5962 11.7719C12.4753 11.2036 9.52751 10.5915 7.71228 10.2307C7.12604 10.1142 6.55327 10.4276 6.34056 10.9725C5.90014 12.1009 5.34232 13.6149 5.02933 14.783C4.71633 15.9511 4.4424 17.5412 4.25963 18.7386C4.17137 19.3169 4.51073 19.8747 5.07669 20.0669C6.82912 20.6621 9.68801 21.6059 11.8089 22.1742C13.9298 22.7425 16.8776 23.3545 18.6928 23.7153C19.2791 23.8318 19.8518 23.5185 20.0645 22.9736C20.505 21.8452 21.0628 20.3311 21.3758 19.163C21.6888 17.9949 21.9627 16.4048 22.1455 15.2074C22.2337 14.6291 21.8944 14.0714 21.3284 13.8792C19.576 13.284 16.7171 12.3402 14.5962 11.7719ZM8.0122 8.7218C9.82797 9.0827 12.8199 9.70319 14.9944 10.2859C17.1689 10.8685 20.0702 11.8271 21.8231 12.4224C23.0832 12.8504 23.869 14.1115 23.6663 15.4396C23.4826 16.6433 23.1984 18.3052 22.8618 19.5612C22.5253 20.8172 21.9404 22.3986 21.4977 23.5329C21.0092 24.7845 19.6981 25.4837 18.3929 25.2243C16.5771 24.8634 13.5852 24.2429 11.4107 23.6602C9.23621 23.0776 6.33492 22.119 4.58196 21.5236C3.32189 21.0957 2.53607 19.8346 2.73879 18.5065C2.92252 17.3028 3.20674 15.6409 3.54329 14.3848C3.87984 13.1288 4.46465 11.5475 4.9074 10.4131C5.39589 9.1616 6.70698 8.46237 8.0122 8.7218Z" fill="#595959"/>
<path fill-rule="evenodd" clip-rule="evenodd" d="M15.3926 8.79981C13.8466 8.38557 11.7489 7.90138 10.3348 7.58399C9.76245 7.45553 9.21977 7.73504 9.01684 8.21881C8.84658 8.6247 8.69314 9.03504 8.60345 9.36977C8.49349 9.78013 8.07169 10.0237 7.66133 9.9137C7.25098 9.80375 7.00745 9.38195 7.11741 8.97159C7.23365 8.53775 7.41794 8.05328 7.59814 7.6237C8.11308 6.3961 9.43323 5.8049 10.6717 6.08287C12.0871 6.40056 14.2117 6.89066 15.7907 7.31377C17.3698 7.73688 19.4548 8.3747 20.8394 8.8073C22.0509 9.18581 22.8986 10.3579 22.7308 11.6785C22.672 12.1406 22.5894 12.6523 22.4732 13.0862C22.3632 13.4965 21.9414 13.74 21.531 13.6301C21.1207 13.5201 20.8772 13.0983 20.9871 12.688C21.0768 12.3532 21.1491 11.9211 21.2046 11.4845C21.2707 10.9641 20.9405 10.4507 20.3806 10.2758C18.9972 9.84356 16.9385 9.21405 15.3926 8.79981Z" fill="#595959"/>
<path fill-rule="evenodd" clip-rule="evenodd" d="M16.1889 5.82773C15.2664 5.58054 14.0558 5.31126 13.0879 5.10632C12.5032 4.98251 11.9432 5.29045 11.7493 5.8126C11.6038 6.20434 11.4692 6.60013 11.3812 6.92861C11.2712 7.33896 10.8494 7.58249 10.4391 7.47253C10.0287 7.36258 9.7852 6.94078 9.89516 6.53042C10.0013 6.1343 10.1548 5.68709 10.307 5.27705C10.7805 4.00209 12.1159 3.32792 13.4066 3.60122C14.379 3.80713 15.623 4.08335 16.5871 4.34169C17.5512 4.60003 18.7666 4.98279 19.7117 5.29069C20.9662 5.69936 21.7856 6.95091 21.5581 8.29177C21.485 8.723 21.3943 9.18704 21.2881 9.58316C21.1782 9.99352 20.7564 10.237 20.346 10.1271C19.9357 10.0171 19.6921 9.59534 19.8021 9.18498C19.8901 8.8565 19.9714 8.44644 20.0413 8.03445C20.1345 7.48531 19.8035 6.93861 19.2352 6.75348C18.2945 6.44702 17.1114 6.07492 16.1889 5.82773Z" fill="#595959"/>
<path fill-rule="evenodd" clip-rule="evenodd" d="M10.4781 16.243C10.5881 15.8327 11.0099 15.5891 11.4203 15.6991L15.383 16.7609C15.7934 16.8709 16.0369 17.2927 15.927 17.703C15.817 18.1134 15.3952 18.3569 14.9848 18.247L11.0221 17.1851C10.6117 17.0752 10.3682 16.6534 10.4781 16.243Z" fill="#595959"/>
<path fill-rule="evenodd" clip-rule="evenodd" d="M12 9.69231C9.80429 9.69231 6.79854 9.86404 4.95178 9.98536C4.35535 10.0245 3.8832 10.4754 3.81879 11.0569C3.68541 12.2608 3.53846 13.8676 3.53846 15.0769C3.53846 16.2862 3.68541 17.8931 3.81879 19.097C3.8832 19.6784 4.35535 20.1293 4.95178 20.1685C6.79854 20.2898 9.80429 20.4615 12 20.4615C14.1957 20.4615 17.2015 20.2898 19.0482 20.1685C19.6447 20.1293 20.1168 19.6784 20.1812 19.097C20.3146 17.8931 20.4615 16.2862 20.4615 15.0769C20.4615 13.8676 20.3146 12.2608 20.1812 11.0569C20.1168 10.4754 19.6447 10.0245 19.0482 9.98536C17.2015 9.86404 14.1957 9.69231 12 9.69231ZM4.85093 8.4502C6.69825 8.32885 9.74878 8.15385 12 8.15385C14.2512 8.15385 17.3018 8.32885 19.1491 8.4502C20.477 8.53744 21.5624 9.55217 21.7103 10.8875C21.8444 12.0977 22 13.7766 22 15.0769C22 16.3772 21.8444 18.0561 21.7103 19.2664C21.5624 20.6017 20.477 21.6164 19.1491 21.7036C17.3018 21.825 14.2512 22 12 22C9.74878 22 6.69825 21.825 4.85093 21.7036C3.52304 21.6164 2.43761 20.6017 2.28968 19.2664C2.1556 18.0561 2 16.3772 2 15.0769C2 13.7766 2.1556 12.0978 2.28968 10.8875C2.43761 9.55217 3.52304 8.53744 4.85093 8.4502Z" fill="white"/>
<path fill-rule="evenodd" clip-rule="evenodd" d="M12 6.61539C10.3995 6.61539 8.248 6.69061 6.79989 6.75004C6.21382 6.77409 5.76196 7.18453 5.69116 7.70434C5.63175 8.14046 5.58974 8.57653 5.58974 8.92308C5.58974 9.34791 5.24535 9.69231 4.82051 9.69231C4.39568 9.69231 4.05128 9.34791 4.05128 8.92308C4.05128 8.47393 4.1039 7.95828 4.16677 7.4967C4.34645 6.17764 5.4686 5.26491 6.73681 5.21287C8.18625 5.15339 10.3652 5.07692 12 5.07692C13.6348 5.07692 15.8138 5.15339 17.2632 5.21287C18.5314 5.26491 19.6536 6.17764 19.8332 7.4967C19.8961 7.95828 19.9487 8.47393 19.9487 8.92308C19.9487 9.34791 19.6043 9.69231 19.1795 9.69231C18.7547 9.69231 18.4103 9.34791 18.4103 8.92308C18.4103 8.57653 18.3682 8.14046 18.3088 7.70434C18.238 7.18453 17.7862 6.77409 17.2001 6.75004C15.752 6.69061 13.6005 6.61539 12 6.61539Z" fill="white"/>
<path fill-rule="evenodd" clip-rule="evenodd" d="M12 3.53846C11.0449 3.53846 9.80589 3.59168 8.81793 3.64423C8.22109 3.67598 7.75986 4.11837 7.70772 4.67291C7.6686 5.08895 7.64103 5.50609 7.64103 5.84615C7.64103 6.27099 7.29663 6.61539 6.8718 6.61539C6.44696 6.61539 6.10256 6.27099 6.10256 5.84615C6.10256 5.43606 6.13507 4.96436 6.17601 4.52889C6.30333 3.17484 7.41874 2.17801 8.73621 2.10794C9.72881 2.05515 11.0018 2 12 2C12.9982 2 14.2712 2.05515 15.2638 2.10794C16.5813 2.17801 17.6967 3.17484 17.824 4.52889C17.8649 4.96436 17.8974 5.43606 17.8974 5.84615C17.8974 6.27099 17.553 6.61539 17.1282 6.61539C16.7034 6.61539 16.359 6.27099 16.359 5.84615C16.359 5.50609 16.3314 5.08895 16.2923 4.67291C16.2401 4.11837 15.7789 3.67598 15.1821 3.64423C14.1941 3.59168 12.9551 3.53846 12 3.53846Z" fill="white"/>
<path fill-rule="evenodd" clip-rule="evenodd" d="M9.17949 15.0769C9.17949 14.6521 9.52388 14.3077 9.94872 14.3077H14.0513C14.4761 14.3077 14.8205 14.6521 14.8205 15.0769C14.8205 15.5018 14.4761 15.8462 14.0513 15.8462H9.94872C9.52388 15.8462 9.17949 15.5018 9.17949 15.0769Z" fill="white"/>
</svg>
