<svg width="26" height="25" viewBox="0 0 26 25" fill="none" xmlns="http://www.w3.org/2000/svg">
<rect x="8.68409" y="0.124243" width="19.7" height="19.7" rx="9.85" transform="rotate(22.5661 8.68409 0.124243)" stroke="#595959" stroke-width="1.7"/>
<path d="M16.1627 15.6136C15.9856 16.0398 15.7418 16.3892 15.4315 16.6618C15.1301 16.9299 14.7813 17.1086 14.3853 17.1981C13.9921 17.2805 13.5738 17.2624 13.1305 17.1437C13.0556 17.1208 13.0017 17.1148 12.969 17.1258C12.9394 17.1463 12.9086 17.1949 12.8767 17.2718L12.7504 17.5758C12.6749 17.7574 12.5531 17.8134 12.3851 17.7435L11.8359 17.5153C11.6919 17.4555 11.6533 17.3452 11.7201 17.1845L11.8682 16.8281C11.8972 16.7582 11.9085 16.7056 11.9021 16.6701C11.8929 16.6417 11.8582 16.615 11.7982 16.5901C11.3837 16.385 11.0479 16.1431 10.7908 15.8641C10.5366 15.5782 10.3237 15.2439 10.152 14.8612C10.0511 14.6635 10.0704 14.524 10.2098 14.4427L11.153 13.9004C11.236 13.853 11.3015 13.8393 11.3495 13.8592C11.3976 13.8792 11.4339 13.9271 11.4587 14.0029C11.5393 14.2495 11.6495 14.4837 11.7895 14.7058C11.9354 14.9303 12.1243 15.1195 12.356 15.2731C12.4493 15.3365 12.5149 15.3227 12.5526 15.2319L13.1976 13.7053C13.2208 13.6494 13.2292 13.6037 13.2228 13.5683C13.2164 13.5329 13.1921 13.4982 13.1499 13.4643C12.6923 13.143 12.3614 12.8047 12.1571 12.4494C11.9529 12.0941 11.8531 11.733 11.8577 11.3662C11.8624 10.9994 11.9387 10.6378 12.0868 10.2814C12.2378 9.91803 12.4522 9.61379 12.7301 9.36867C13.0079 9.12356 13.3358 8.95255 13.7139 8.85563C14.098 8.76122 14.5219 8.75712 14.9858 8.84335C15.0276 8.84434 15.0753 8.83958 15.1289 8.82909C15.1915 8.8141 15.2358 8.77517 15.2619 8.71227L15.41 8.3559C15.4304 8.30698 15.4583 8.27354 15.494 8.25556C15.5356 8.24008 15.5714 8.23857 15.6014 8.25104L16.2946 8.5391C16.3546 8.56403 16.3923 8.60021 16.4078 8.64762C16.4262 8.68804 16.418 8.75018 16.3831 8.83403L16.2263 9.21137C16.206 9.26029 16.235 9.31742 16.3134 9.38278C16.5847 9.59383 16.8172 9.81337 17.0109 10.0414C17.2136 10.2649 17.3822 10.503 17.5165 10.7555C17.5984 10.8632 17.5742 10.9638 17.4439 11.0572L16.555 11.6465C16.4987 11.6805 16.4481 11.6922 16.4032 11.6818C16.3582 11.6713 16.3159 11.6209 16.276 11.5306C16.2326 11.3978 16.1638 11.2586 16.0695 11.1129C15.9812 10.9697 15.8677 10.8365 15.7289 10.7132C15.6987 10.6843 15.6672 10.6753 15.6345 10.6863C15.6107 10.6928 15.5915 10.7135 15.577 10.7484L14.9628 12.2264C14.9367 12.2892 14.9583 12.3474 15.0276 12.4008L15.507 12.7967C15.7724 13.0217 15.9786 13.2877 16.1255 13.5946C16.2754 13.8945 16.3553 14.2186 16.3654 14.5669C16.3784 14.9083 16.3108 15.2572 16.1627 15.6136ZM14.5911 10.3265C14.6376 10.2147 14.6175 10.153 14.5307 10.1416C14.2586 10.1022 14.0334 10.1275 13.8553 10.2173C13.6861 10.3027 13.5652 10.4328 13.4926 10.6075C13.4374 10.7402 13.4135 10.8655 13.4209 10.9833C13.4282 11.1011 13.4654 11.2148 13.5324 11.3246C13.5994 11.4344 13.6977 11.5449 13.8274 11.6562C13.8905 11.6906 13.9399 11.6988 13.9755 11.6809C14.0171 11.6654 14.0568 11.6122 14.0946 11.5214L14.5911 10.3265ZM13.5254 15.6853C13.4964 15.7552 13.5282 15.7971 13.621 15.8111C13.8873 15.8644 14.1141 15.8521 14.3013 15.7742C14.4914 15.6893 14.6257 15.5525 14.7041 15.3639C14.7912 15.1542 14.8038 14.9546 14.7418 14.765C14.6828 14.5684 14.5268 14.3765 14.2737 14.1894C14.2406 14.1674 14.2122 14.1597 14.1884 14.1662C14.1646 14.1727 14.141 14.2039 14.1178 14.2598L13.5254 15.6853Z" fill="#595959"/>
<rect x="2.15" y="2.15" width="19.7" height="19.7" rx="9.85" stroke="white" stroke-width="1.7"/>
<path d="M15 13.5834C15 14.045 14.909 14.4612 14.727 14.832C14.5516 15.1952 14.2981 15.4941 13.9667 15.7287C13.6352 15.9557 13.242 16.0995 12.7871 16.16C12.7091 16.1676 12.6571 16.1827 12.6311 16.2054C12.6117 16.2357 12.6019 16.2925 12.6019 16.3757V16.7049C12.6019 16.9016 12.5109 17 12.3289 17H11.7343C11.5783 17 11.5003 16.913 11.5003 16.7389V16.353C11.5003 16.2773 11.4906 16.2244 11.4711 16.1941C11.4516 16.1714 11.4094 16.16 11.3444 16.16C10.8829 16.1298 10.48 16.0352 10.1356 15.8763C9.79112 15.7098 9.46618 15.4828 9.16073 15.1952C8.99176 15.0515 8.95601 14.9152 9.0535 14.7866L9.71639 13.924C9.77488 13.8483 9.83012 13.8104 9.88211 13.8104C9.9341 13.8104 9.98609 13.8407 10.0381 13.9012C10.2071 14.098 10.3988 14.272 10.6132 14.4234C10.8342 14.5747 11.0812 14.6769 11.3541 14.7299C11.4646 14.7526 11.5198 14.7147 11.5198 14.6163L11.5296 12.9591C11.5296 12.8986 11.5198 12.8532 11.5003 12.8229C11.4808 12.7927 11.4451 12.77 11.3931 12.7548C10.8472 12.6337 10.4118 12.4484 10.0868 12.1986C9.76188 11.9489 9.53117 11.6538 9.39469 11.3133C9.25821 10.9728 9.18997 10.6095 9.18997 10.2236C9.18997 9.83012 9.27121 9.46689 9.43368 9.13394C9.59616 8.80098 9.83337 8.51722 10.1453 8.28263C10.4638 8.04805 10.8537 7.88157 11.3151 7.7832C11.3541 7.76807 11.3964 7.74537 11.4418 7.7151C11.4938 7.67726 11.5198 7.62429 11.5198 7.55619V7.17026C11.5198 7.11729 11.5328 7.07567 11.5588 7.0454C11.5913 7.01513 11.6238 7 11.6563 7H12.4069C12.4719 7 12.5207 7.01892 12.5532 7.05675C12.5857 7.08702 12.6019 7.14756 12.6019 7.23837V7.64699C12.6019 7.69996 12.6506 7.74158 12.7481 7.77185C13.0796 7.86266 13.3785 7.97616 13.645 8.11237C13.9179 8.24101 14.1649 8.39614 14.3859 8.57775C14.5028 8.64586 14.5191 8.74801 14.4346 8.88422L13.8399 9.76958C13.801 9.82255 13.7587 9.85282 13.7132 9.86039C13.6677 9.86795 13.6092 9.83768 13.5377 9.76958C13.4468 9.66364 13.3298 9.56148 13.1868 9.46311C13.0503 9.36474 12.8944 9.28528 12.7189 9.22475C12.6799 9.20961 12.6474 9.21339 12.6214 9.2361C12.6019 9.25123 12.5922 9.27772 12.5922 9.31555V10.916C12.5922 10.9841 12.6344 11.0295 12.7189 11.0522L13.3135 11.2338C13.645 11.3398 13.9374 11.5062 14.1909 11.7333C14.4443 11.9527 14.6426 12.2213 14.7855 12.5392C14.9285 12.8494 15 13.1975 15 13.5834ZM11.5198 9.3042C11.5198 9.18313 11.4776 9.13394 11.3931 9.15664C11.1266 9.22475 10.9284 9.33447 10.7985 9.48581C10.675 9.62959 10.6132 9.79607 10.6132 9.98524C10.6132 10.129 10.6392 10.2539 10.6912 10.3598C10.7432 10.4658 10.8212 10.5566 10.9252 10.6322C11.0292 10.7079 11.1624 10.7722 11.3249 10.8252C11.3964 10.8328 11.4451 10.8214 11.4711 10.7911C11.5036 10.7609 11.5198 10.6966 11.5198 10.5982V9.3042ZM12.5922 14.6617C12.5922 14.7374 12.6376 14.7639 12.7286 14.7412C12.9951 14.6882 13.1998 14.5899 13.3428 14.4461C13.4858 14.2947 13.5572 14.1169 13.5572 13.9126C13.5572 13.6856 13.4923 13.4964 13.3623 13.3451C13.2323 13.1862 13.0146 13.0689 12.7091 12.9932C12.6701 12.9856 12.6409 12.9894 12.6214 13.0045C12.6019 13.0197 12.5922 13.0575 12.5922 13.118V14.6617Z" fill="white"/>
</svg>
