<svg width="24" height="24" viewBox="0 0 24 24" fill="none" xmlns="http://www.w3.org/2000/svg">
<path fill-rule="evenodd" clip-rule="evenodd" d="M17.2106 14.095C17.0821 14.4999 16.6476 14.7233 16.24 14.594L10.6742 12.8278C10.2667 12.6985 10.0405 12.2653 10.169 11.8604C10.2975 11.4555 10.732 11.2321 11.1396 11.3614L16.7054 13.1276C17.1129 13.2569 17.3391 13.69 17.2106 14.095Z" fill="#595959"/>
<path fill-rule="evenodd" clip-rule="evenodd" d="M14.7999 9.47943C15.2075 9.60876 15.4337 10.0419 15.3052 10.4468L13.5503 15.9769C13.4218 16.3819 12.9872 16.6053 12.5797 16.476C12.1721 16.3466 11.9459 15.9135 12.0744 15.5086L13.8293 9.97846C13.9578 9.57352 14.3924 9.3501 14.7999 9.47943Z" fill="#595959"/>
<path fill-rule="evenodd" clip-rule="evenodd" d="M13.8729 2.37778C14.337 1.97694 14.978 1.819 15.5835 2.01115L18.466 2.92587C19.0715 3.11802 19.5042 3.61668 19.6522 4.21178L19.9133 5.26129C20.4334 5.47199 20.925 5.67709 21.3533 5.85871C22.6003 6.38754 23.2785 7.72384 22.9748 9.03081C22.5666 10.7873 21.8741 13.6357 21.2187 15.7013C20.6 17.6507 19.7269 19.8098 19.1385 21.2013C18.6232 22.4198 17.3156 23.0896 16.0174 22.8088C14.6069 22.5036 12.5192 22.0216 10.9753 21.5317C9.4314 21.0417 7.44785 20.2318 6.11942 19.6678C4.89684 19.1487 4.21471 17.8475 4.49634 16.5549C4.81795 15.0787 5.3495 12.8112 5.96812 10.8617C6.6236 8.79617 7.70021 6.06965 8.37952 4.39921C8.885 3.15626 10.2097 2.45556 11.5334 2.74253C11.988 2.84108 12.5079 2.95695 13.0544 3.08471L13.8729 2.37778ZM12.2184 4.47075C11.8602 4.38914 11.5196 4.31381 11.2093 4.24655C10.6249 4.11986 10.0398 4.42678 9.81437 4.98104C9.1354 6.65064 8.0794 9.3277 7.44398 11.3301C6.84716 13.2108 6.32752 15.4232 6.00876 16.8862C5.88521 17.4533 6.18182 18.0228 6.72237 18.2523C8.04765 18.8149 9.97265 19.5994 11.4407 20.0653C12.9087 20.5311 14.9338 21.0001 16.341 21.3046C16.915 21.4288 17.4857 21.1346 17.7117 20.6C18.2949 19.2208 19.146 17.1137 19.7428 15.2329C20.3782 13.2306 21.0591 10.4344 21.467 8.67884C21.6025 8.09602 21.3014 7.50789 20.7509 7.27443C20.4585 7.15046 20.1368 7.01562 19.7971 6.87575C19.6927 7.0714 19.5569 7.24664 19.3984 7.39325C18.9653 7.79386 18.3163 8.01637 17.6406 7.80195L13.4463 6.47093C12.7705 6.2565 12.3686 5.70051 12.2457 5.12346C12.2008 4.91228 12.1909 4.69081 12.2184 4.47075ZM15.1182 3.47755C15.0657 3.46091 14.9792 3.46465 14.8899 3.54177L13.8953 4.40079C13.8806 4.41344 13.8675 4.42647 13.8556 4.43975C13.7653 4.54102 13.7325 4.68242 13.7596 4.8098C13.7855 4.93134 13.8489 4.98463 13.9116 5.00453L18.106 6.33555C18.1687 6.35545 18.2512 6.34848 18.3424 6.2641C18.438 6.17567 18.4928 6.04123 18.4773 5.90639C18.4753 5.8887 18.4721 5.87047 18.4674 5.85169L18.1501 4.57636C18.1216 4.46187 18.0531 4.4089 18.0006 4.39226L15.1182 3.47755Z" fill="#595959"/>
<path fill-rule="evenodd" clip-rule="evenodd" d="M15.6939 13.0256C15.6939 13.4505 15.3472 13.7949 14.9197 13.7949H9.08033C8.65276 13.7949 8.30614 13.4505 8.30614 13.0256C8.30614 12.6008 8.65276 12.2564 9.08033 12.2564H14.9197C15.3472 12.2564 15.6939 12.6008 15.6939 13.0256Z" fill="white"/>
<path fill-rule="evenodd" clip-rule="evenodd" d="M12 9.35546C12.4276 9.35546 12.7742 9.69986 12.7742 10.1247V15.9266C12.7742 16.3514 12.4276 16.6958 12 16.6958C11.5724 16.6958 11.2258 16.3514 11.2258 15.9266V10.1247C11.2258 9.69986 11.5724 9.35546 12 9.35546Z" fill="white"/>
<path fill-rule="evenodd" clip-rule="evenodd" d="M8.96832 2.86688C9.28943 2.34443 9.85266 2 10.4879 2H13.5121C14.1473 2 14.7106 2.34443 15.0317 2.86688L15.598 3.78825C16.1575 3.83176 16.6881 3.87857 17.1512 3.92214C18.4998 4.04902 19.5504 5.11757 19.6563 6.45519C19.7985 8.25286 20 11.1773 20 13.3444C20 15.3896 19.8208 17.7117 19.6808 19.216C19.5583 20.5333 18.5145 21.5672 17.1922 21.6922C15.7554 21.8279 13.6198 22 12 22C10.3802 22 8.24457 21.8279 6.80778 21.6922C5.48548 21.5672 4.44171 20.5333 4.31916 19.216C4.1792 17.7117 4 15.3896 4 13.3444C4 11.1773 4.20149 8.25286 4.34373 6.45519C4.44956 5.11757 5.50024 4.04902 6.84879 3.92214C7.31193 3.87857 7.8425 3.83176 8.402 3.78825L8.96832 2.86688ZM8.02441 5.36223C7.65829 5.3928 7.31087 5.42401 6.99475 5.45375C6.39941 5.50977 5.93455 5.97928 5.88735 6.57577C5.74518 8.37253 5.54839 11.2436 5.54839 13.3444C5.54839 15.3175 5.72226 17.5834 5.86097 19.0744C5.91474 19.6523 6.3697 20.1054 6.95435 20.1606C8.38773 20.296 10.4598 20.4615 12 20.4615C13.5402 20.4615 15.6123 20.296 17.0456 20.1606C17.6303 20.1054 18.0853 19.6523 18.139 19.0744C18.2777 17.5834 18.4516 15.3175 18.4516 13.3444C18.4516 11.2436 18.2548 8.37253 18.1126 6.57577C18.0655 5.97928 17.6006 5.50977 17.0052 5.45376C16.6891 5.42401 16.3417 5.3928 15.9756 5.36223C15.9352 5.5803 15.8588 5.7884 15.7521 5.97609C15.4604 6.48894 14.9092 6.89732 14.2002 6.89732H9.79976C9.09084 6.89732 8.53958 6.48894 8.24791 5.97609C8.14117 5.7884 8.06476 5.5803 8.02441 5.36223ZM10.4879 3.53846C10.4329 3.53846 10.3515 3.56821 10.2898 3.66872L9.60159 4.78834C9.59146 4.80483 9.58285 4.82123 9.57557 4.83747C9.52007 4.96132 9.53158 5.10602 9.59596 5.21923C9.6574 5.32725 9.73397 5.35886 9.79976 5.35886H14.2002C14.266 5.35886 14.3426 5.32725 14.404 5.21923C14.4684 5.10602 14.4799 4.96132 14.4244 4.83747C14.4171 4.82123 14.4085 4.80483 14.3984 4.78834L13.7102 3.66872C13.6485 3.56821 13.5671 3.53846 13.5121 3.53846H10.4879Z" fill="white"/>
</svg>
